<svg xmlns="http://www.w3.org/2000/svg" width="28.069" height="28.682" viewBox="0 0 28.069 28.682">
  <g id="Icons" transform="translate(-0.214 -0.533)">
    <g id="Color-" transform="translate(0.214 0.533)">
      <g id="Google" transform="translate(0 0)">
        <path id="Fill-1" d="M6.089,19.957A8.481,8.481,0,0,1,6.519,17.3L1.686,13.6a14.438,14.438,0,0,0,0,12.7l4.831-3.7a8.485,8.485,0,0,1-.426-2.65" transform="translate(-0.214 -5.616)" fill="#fbbc05" fill-rule="evenodd"/>
        <path id="Fill-2" d="M15.512,6.4A8.309,8.309,0,0,1,20.8,8.29l4.178-4.172a14.352,14.352,0,0,0-22.354,4.4l4.833,3.691A8.463,8.463,0,0,1,15.512,6.4" transform="translate(-1.151 -0.533)" fill="#eb4335" fill-rule="evenodd"/>
        <path id="Fill-3" d="M15.512,34.168a8.463,8.463,0,0,1-8.055-5.812l-4.833,3.69a14.318,14.318,0,0,0,12.888,7.988,13.686,13.686,0,0,0,9.357-3.574l-4.588-3.547a8.883,8.883,0,0,1-4.769,1.254" transform="translate(-1.151 -11.353)" fill="#34a853" fill-rule="evenodd"/>
        <path id="Fill-4" d="M37.422,22.341a11.883,11.883,0,0,0-.326-2.607H23.714v5.541h7.7a6.459,6.459,0,0,1-2.934,4.287l4.588,3.547a14.263,14.263,0,0,0,4.351-10.767" transform="translate(-9.353 -8)" fill="#4285f4" fill-rule="evenodd"/>
      </g>
    </g>
  </g>
</svg>
