<svg version="1.1" id="Layer_1" xmlns="http://www.w3.org/2000/svg" xmlns:xlink="http://www.w3.org/1999/xlink" x="0px" y="0px"
	 width="100%" viewBox="0 0 288 288" enable-background="new 0 0 288 288" xml:space="preserve">
<path fill="#000000" opacity="1.000000" stroke="none" 
	d="
M105.656311,207.347580 
	C132.620438,240.914658 182.896240,237.444107 204.854584,200.730682 
	C210.871979,190.669861 212.993515,179.604294 211.503189,168.054657 
	C209.646317,153.664368 199.300766,144.524658 184.578888,144.273590 
	C167.258377,143.978210 149.930496,144.124344 132.605942,144.047684 
	C130.280014,144.037384 127.955200,143.837708 125.629402,143.736572 
	C107.310104,142.939926 101.753372,126.351158 104.291946,113.612328 
	C108.704445,91.469971 127.837486,76.597160 150.611008,75.459068 
	C173.797211,74.300354 196.347336,91.099991 201.483200,109.892990 
	C202.136658,112.284103 202.917709,114.643852 202.605728,117.762985 
	C197.254410,118.819191 191.816559,118.273262 186.423965,118.097092 
	C184.374283,118.030128 184.102966,116.009529 183.509750,114.474731 
	C174.555710,91.309044 143.809052,85.873322 127.258293,104.523865 
	C121.857178,110.610229 121.701828,118.050781 121.352600,126.652397 
	C132.553391,126.652397 143.311035,126.649673 154.068680,126.653168 
	C164.896957,126.656677 175.727417,126.810036 186.553085,126.645561 
	C215.301590,126.208809 228.731018,145.664536 230.297272,170.231506 
	C232.560394,205.728760 202.583237,241.808121 162.529358,247.397934 
	C122.660614,252.961929 81.286110,222.409363 75.952507,182.658615 
	C75.500931,179.293015 76.227791,177.432770 79.961525,177.743149 
	C80.126732,177.756912 80.294594,177.743073 80.461037,177.737167 
	C92.104378,177.323929 91.992699,177.358307 95.342400,188.231766 
	C97.467644,195.130524 101.039291,201.340836 105.656311,207.347580 
z"/>
<path fill="#000000" opacity="1.000000" stroke="none" 
	d="
M78.388489,137.349823 
	C71.166862,107.009285 87.100075,74.088303 116.130669,58.713295 
	C163.422287,33.666988 220.898193,61.655491 230.528931,114.429077 
	C230.703278,115.384453 230.728500,116.367027 230.901199,118.133728 
	C225.237885,118.133728 219.825775,118.231430 214.420197,118.086060 
	C212.230759,118.027184 212.192047,115.969048 211.829163,114.369438 
	C206.142380,89.302307 188.508591,72.114922 162.895721,67.897072 
	C132.007446,62.810478 100.970428,81.251259 95.013268,111.884285 
	C93.547470,119.421738 92.996544,127.159386 95.669487,134.573822 
	C99.265678,144.549240 110.643036,151.799255 122.603058,151.872101 
	C140.759842,151.982681 158.918655,151.808411 177.074783,151.966553 
	C193.315292,152.107986 202.436066,161.562805 202.377762,177.604401 
	C202.343399,187.056961 198.635254,195.167709 193.114410,202.417847 
	C172.513412,229.471741 128.184189,227.413788 109.971260,198.736465 
	C106.877724,193.865494 105.154266,188.540390 103.855499,183.004547 
	C103.042892,179.540878 103.716019,177.356430 107.903305,177.876877 
	C108.395706,177.938080 108.910408,177.949768 109.400375,177.881317 
	C117.135422,176.800247 121.757294,178.752518 124.612038,187.386673 
	C129.009476,200.686737 148.756439,207.448349 163.852325,202.383118 
	C178.163712,197.581116 186.270248,183.983521 183.096573,170.008438 
	C181.199692,169.122879 179.198853,169.755997 177.239975,169.778107 
	C156.756592,170.009064 136.260941,170.752487 115.798248,169.437149 
	C97.550865,168.264221 82.921860,155.604965 78.388489,137.349823 
z"/>
</svg>